<svg width="24" height="24" viewBox="0 0 24 24" fill="none" xmlns="http://www.w3.org/2000/svg">
<g id="tooltip">
<circle id="Ellipse 24" cx="12" cy="12" r="11.5" fill="white" stroke="#C4C4C4"/>
<path id="?" d="M10.5333 14.1087V13.5711C10.5333 13.1061 10.6326 12.7016 10.8312 12.3577C11.0298 12.0138 11.3931 11.648 11.9211 11.2605C12.4297 10.8972 12.7639 10.6018 12.9238 10.3741C13.0885 10.1464 13.1708 9.89212 13.1708 9.61118C13.1708 9.29632 13.0546 9.05655 12.8221 8.89186C12.5895 8.72717 12.265 8.64482 11.8484 8.64482C11.1218 8.64482 10.2935 8.88217 9.36351 9.35687L8.57153 7.76565C9.65172 7.16017 10.7973 6.85742 12.0083 6.85742C13.0061 6.85742 13.7981 7.09719 14.3842 7.57674C14.9752 8.05629 15.2706 8.69568 15.2706 9.49492C15.2706 10.0278 15.1495 10.4879 14.9074 10.8754C14.6652 11.2629 14.205 11.6989 13.5268 12.1833C13.0618 12.5272 12.7663 12.7888 12.6404 12.968C12.5193 13.1472 12.4588 13.3822 12.4588 13.6728V14.1087H10.5333ZM10.3008 16.5937C10.3008 16.1868 10.4098 15.8792 10.6278 15.6709C10.8457 15.4626 11.163 15.3585 11.5796 15.3585C11.9816 15.3585 12.2916 15.465 12.5096 15.6782C12.7324 15.8913 12.8439 16.1965 12.8439 16.5937C12.8439 16.9763 12.7324 17.2791 12.5096 17.5019C12.2868 17.7199 11.9768 17.8289 11.5796 17.8289C11.1727 17.8289 10.8579 17.7223 10.635 17.5092C10.4122 17.2912 10.3008 16.986 10.3008 16.5937Z" fill="#008AD8"/>
</g>
</svg>
