<svg width="72" height="64" viewBox="0 0 72 64" fill="none" xmlns="http://www.w3.org/2000/svg">
<g id="Success">
<path id="Vector" d="M31.9972 60.4446C47.7066 60.4446 60.4417 47.7096 60.4417 32.0001C60.4417 16.2907 47.7066 3.55566 31.9972 3.55566C16.2878 3.55566 3.55273 16.2907 3.55273 32.0001C3.55273 47.7096 16.2878 60.4446 31.9972 60.4446Z" fill="white"/>
<path id="Vector_2" opacity="0.4" d="M31.997 64C26.9243 63.9995 21.9244 62.7931 17.4096 60.4802C12.8949 58.1673 8.99464 54.8142 6.03068 50.6974C3.06671 46.5807 1.12391 41.8183 0.362514 36.803C-0.398877 31.7878 0.0429576 26.6634 1.65158 21.8524C3.26019 17.0415 5.9895 12.682 9.61439 9.13334C13.2393 5.58471 17.6559 2.94869 22.4999 1.44271C27.3439 -0.0632725 32.4766 -0.396069 37.4745 0.471769C42.4725 1.33961 47.1925 3.38321 51.2453 6.43403C51.9959 7.00273 52.4903 7.84589 52.6201 8.77861C52.7499 9.71132 52.5045 10.6574 51.9377 11.4095C51.3709 12.1615 50.529 12.6581 49.5966 12.7903C48.6643 12.9224 47.7175 12.6795 46.964 12.1146C42.6581 8.85167 37.3995 7.09371 31.997 7.11111C27.0745 7.11111 22.2625 8.57082 18.1695 11.3056C14.0766 14.0405 10.8865 17.9276 9.0027 22.4754C7.11892 27.0233 6.62604 32.0276 7.58638 36.8556C8.54672 41.6836 10.9172 46.1183 14.3979 49.5991C17.8787 53.0799 22.3135 55.4503 27.1415 56.4107C31.9694 57.371 36.9737 56.8781 41.5216 54.9943C46.0694 53.1106 49.9566 49.9205 52.6914 45.8275C55.4262 41.7346 56.8859 36.9226 56.8859 32C56.8859 31.057 57.2605 30.1526 57.9273 29.4858C58.5941 28.8191 59.4985 28.4444 60.4415 28.4444C61.3845 28.4444 62.2888 28.8191 62.9556 29.4858C63.6224 30.1526 63.997 31.057 63.997 32C63.9875 40.484 60.613 48.6178 54.6139 54.6169C48.6148 60.616 40.481 63.9904 31.997 64V64Z" fill="#1AB900"/>
<path id="Vector_3" d="M31.9989 42.6669C31.5317 42.6677 31.0688 42.576 30.6371 42.3972C30.2054 42.2184 29.8133 41.956 29.4833 41.6252L18.8167 30.9585C18.1585 30.29 17.7913 29.3885 17.7949 28.4504C17.7986 27.5123 18.1729 26.6137 18.8362 25.9504C19.4996 25.2871 20.3982 24.9128 21.3363 24.9092C22.2743 24.9055 23.1758 25.2728 23.8443 25.9309L32.261 34.3476L65.3322 7.88925C66.0692 7.30356 67.0084 7.03401 67.9438 7.13967C68.8793 7.24534 69.7347 7.7176 70.3225 8.45294C70.9103 9.18828 71.1825 10.1267 71.0795 11.0624C70.9765 11.9982 70.5067 12.8549 69.7731 13.4448L34.2175 41.8893C33.5879 42.3932 32.8054 42.6675 31.9989 42.6669V42.6669Z" fill="#1AB900"/>
</g>
</svg>
